<?xml version="1.0" encoding="utf-8"?>
<!-- Generator: Adobe Illustrator 24.1.2, SVG Export Plug-In . SVG Version: 6.00 Build 0)  -->
<svg version="1.1" id="Слой_1" xmlns="http://www.w3.org/2000/svg" xmlns:xlink="http://www.w3.org/1999/xlink" x="0px" y="0px"
	 viewBox="0 0 512 512" style="enable-background:new 0 0 512 512;" xml:space="preserve">
<style type="text/css">
	.st0{fill:#4C6CA5;}
</style>
<g>
	<path id="Shape_14_" class="st0" d="M500,230.9l-49.5-30.9c-5.1-3.2-9-8.1-10.8-13.9L412.9,82.1C409.6,71.4,399.7,64,388.4,64
		h-64.2c-14.1,0-25.6,11.5-25.6,25.6v204.8h-17.1V123.7c0-4.7-3.8-8.5-8.5-8.5s-8.5,3.8-8.5,8.5v162.1h-17.1V174.9
		c0-9.4-7.6-17.1-17.1-17.1h-34.1V89.6c0-9.4-7.6-17.1-17.1-17.1H76.8c-9.4,0-17.1,7.6-17.1,17.1c0,4.7,3.8,8.5,8.5,8.5
		s8.5-3.8,8.5-8.5h102.4v68.3H128c-9.4,0-17.1,7.6-17.1,17.1V192H76.8v-34.1c0-4.7-3.8-8.5-8.5-8.5s-8.5,3.8-8.5,8.5V192H25.6
		c-9.4,0-17.1,7.6-17.1,17.1v76.8c-4.7,0-8.5,3.8-8.5,8.5v68.3c0,4.7,3.8,8.5,8.5,8.5h68.9c-3.5,23.2,6.9,46.4,26.6,59.2
		c19.7,12.8,45.1,12.8,64.9,0c19.7-12.8,30.2-35.9,26.6-59.2h77.5c4.7,0,8.5-3.8,8.5-8.5h17.1c0,4.7,3.8,8.5,8.5,8.5h26.3
		c-3.5,23.2,6.9,46.4,26.6,59.2c19.7,12.8,45.1,12.8,64.9,0c19.7-12.8,30.2-35.9,26.6-59.2h34.8c14.1,0,25.6-11.5,25.6-25.6v-92.9
		C512,243.8,507.4,235.6,500,230.9L500,230.9z M396.5,86.7l26.8,104.1c1.1,3.4,2.6,6.7,4.5,9.7h-69.4c-4.7,0-8.5-3.8-8.5-8.5V81.1
		l38.6,0C392,81,395.3,83.3,396.5,86.7z M128,174.9h102.4v110.9h-68.3v-76.8c0-9.4-7.6-17.1-17.1-17.1H128V174.9z M25.6,209.1h119.5
		v76.8H25.6V209.1z M136.5,422.4c-23.6,0-42.7-19.1-42.7-42.7c0-23.6,19.1-42.7,42.7-42.7s42.7,19.1,42.7,42.7
		C179.2,403.3,160.1,422.4,136.5,422.4z M190.4,354.1c-9.9-20.8-30.8-34.1-53.9-34.1s-44,13.3-53.9,34.1H17.1v-51.2h247.5v51.2
		H190.4z M281.6,345.6v-34.1h17.1v34.1H281.6z M392.5,422.4c-23.6,0-42.7-19.1-42.7-42.7c0-23.6,19.1-42.7,42.7-42.7
		s42.7,19.1,42.7,42.7C435.2,403.3,416.1,422.4,392.5,422.4z M486.4,354.1h-40c-9.9-20.8-30.8-34.1-53.9-34.1s-44,13.3-53.9,34.1
		h-22.9V89.6c0-4.7,3.8-8.5,8.5-8.5h8.5V192c0,14.1,11.5,25.6,25.6,25.6h88l44.5,27.8c2.5,1.6,4,4.3,4.1,7.3v7.6h-25.6
		c-4.7,0-8.5,3.8-8.5,8.5s3.8,8.5,8.5,8.5h25.6v68.3C494.9,350.3,491.1,354.1,486.4,354.1z"/>
	<path id="Shape_15_" class="st0" d="M392.5,354.1c-14.1,0-25.6,11.5-25.6,25.6s11.5,25.6,25.6,25.6s25.6-11.5,25.6-25.6
		S406.7,354.1,392.5,354.1z M392.5,388.3c-4.7,0-8.5-3.8-8.5-8.5s3.8-8.5,8.5-8.5s8.5,3.8,8.5,8.5S397.2,388.3,392.5,388.3z"/>
	<path id="Shape_16_" class="st0" d="M136.5,354.1c-14.1,0-25.6,11.5-25.6,25.6s11.5,25.6,25.6,25.6s25.6-11.5,25.6-25.6
		S150.7,354.1,136.5,354.1z M136.5,388.3c-4.7,0-8.5-3.8-8.5-8.5s3.8-8.5,8.5-8.5s8.5,3.8,8.5,8.5S141.2,388.3,136.5,388.3z"/>
	<path id="Shape_17_" class="st0" d="M68.4,132.3c-4.7,0-8.6-3.8-8.6-8.5s3.8-8.6,8.5-8.6h0.1c4.7,0,8.5,3.8,8.5,8.5
		S73.2,132.3,68.4,132.3z"/>
</g>
</svg>
