<?xml version="1.0" encoding="utf-8"?>
<!-- Generator: Adobe Illustrator 24.1.2, SVG Export Plug-In . SVG Version: 6.00 Build 0)  -->
<svg version="1.1" id="Слой_1" xmlns="http://www.w3.org/2000/svg" xmlns:xlink="http://www.w3.org/1999/xlink" x="0px" y="0px"
	 viewBox="0 0 512 512" style="enable-background:new 0 0 512 512;" xml:space="preserve">
<style type="text/css">
	.st0{fill:#4C6CA5;}
	.st1{display:none;fill:#4C6CA5;}
</style>
<g>
	<g>
		<g>
			<path class="st0" d="M476.2,236.2l-13.3-53c3.6-0.8,6.3-4,6.3-7.8v-8.6c0-18.6-15.1-33.7-33.7-33.7h-60.4v-17.6
				c0-9.1-7.4-16.6-16.6-16.6H50.8c-9.1,0-16.6,7.4-16.6,16.6v145.4c0,4.4,3.6,8,8,8c4.4,0,8-3.6,8-8V115.5c0-0.3,0.2-0.5,0.5-0.5
				h307.8c0.3,0,0.5,0.2,0.5,0.5v145.4c0,4.4,3.6,8,8,8c4.4,0,8-3.6,8-8v-9.1h94.6c0,0,0,0,0,0c0,0,0,0,0,0
				c11.6,0,21.5,7.6,24.9,18.2h-24.9c-4.4,0-8,3.6-8,8V295c0,13.9,11.3,25.1,25.1,25.1h9.1v35.3h-21c-6.9-19.9-25.8-34.2-48-34.2
				c-22.2,0-41.1,14.3-48,34.2h-3.9V295c0-4.4-3.6-8-8-8c-4.4,0-8,3.6-8,8v60.4H192.8c-6.9-19.9-25.8-34.2-48-34.2
				s-41.1,14.3-48,34.2H50.8c-0.3,0-0.5-0.2-0.5-0.5v-17.6H85c4.4,0,8-3.6,8-8s-3.6-8-8-8H8c-4.4,0-8,3.6-8,8s3.6,8,8,8h26.2v17.6
				c0,9.1,7.4,16.6,16.6,16.6h43.3c0,0.2,0,0.4,0,0.5c0,28,22.8,50.8,50.8,50.8s50.8-22.8,50.8-50.8c0-0.2,0-0.4,0-0.5h180.7
				c0,0.2,0,0.4,0,0.5c0,28,22.8,50.8,50.8,50.8c28,0,50.8-22.8,50.8-50.8c0-0.2,0-0.4,0-0.5H504c4.4,0,8-3.6,8-8v-85.5
				C512,256.8,496.4,239.3,476.2,236.2z M375.2,149.1h60.4c9.7,0,17.6,7.9,17.6,17.6v0.5h-78V149.1z M375.2,235.7v-52.4h71.2
				l13.1,52.4L375.2,235.7L375.2,235.7z M144.8,406.7c-19.2,0-34.7-15.6-34.7-34.7s15.6-34.7,34.7-34.7s34.7,15.6,34.7,34.7
				S164,406.7,144.8,406.7z M427,406.7c-19.2,0-34.7-15.6-34.7-34.7s15.6-34.7,34.7-34.7c19.2,0,34.7,15.6,34.7,34.7
				S446.2,406.7,427,406.7z M496,304.1h-9.1c-5,0-9.1-4.1-9.1-9.1v-9.1H496L496,304.1L496,304.1z"/>
		</g>
	</g>
	<circle class="st1" cx="213.2" cy="219.9" r="93.6"/>
	<g>
		<g>
			<path class="st0" d="M144.8,355.4c-9.1,0-16.6,7.4-16.6,16.6c0,9.1,7.4,16.6,16.6,16.6s16.6-7.4,16.6-16.6
				C161.4,362.9,154,355.4,144.8,355.4z"/>
		</g>
	</g>
	<g>
		<g>
			<path class="st0" d="M427,355.4c-9.1,0-16.6,7.4-16.6,16.6c0,9.1,7.4,16.6,16.6,16.6c9.1,0,16.6-7.4,16.6-16.6
				C443.6,362.9,436.2,355.4,427,355.4z"/>
		</g>
	</g>
	<g>
		<g>
			<path class="st0" d="M333,321.2H213.2c-4.4,0-8,3.6-8,8s3.6,8,8,8H333c4.4,0,8-3.6,8-8S337.4,321.2,333,321.2z"/>
		</g>
	</g>
	<g>
		<g>
			<path class="st0" d="M127.7,287H25.1c-4.4,0-8,3.6-8,8s3.6,8,8,8h102.6c4.4,0,8-3.6,8-8S132.2,287,127.7,287z"/>
		</g>
	</g>
	<g>
		<g>
			<path class="st0" d="M278.8,175.7c-3.1-3.1-8.2-3.1-11.3,0L196.1,247l-37.1-37.1c-3.1-3.1-8.2-3.1-11.3,0
				c-3.1,3.1-3.1,8.2,0,11.3l42.8,42.8c1.6,1.6,3.6,2.3,5.7,2.3c2.1,0,4.1-0.8,5.7-2.3l77-77C281.9,183.9,281.9,178.8,278.8,175.7z"
				/>
		</g>
	</g>
</g>
</svg>
