<?xml version="1.0" encoding="utf-8"?>
<!-- Generator: Adobe Illustrator 24.1.2, SVG Export Plug-In . SVG Version: 6.00 Build 0)  -->
<svg version="1.1" id="Слой_1" xmlns="http://www.w3.org/2000/svg" xmlns:xlink="http://www.w3.org/1999/xlink" x="0px" y="0px"
	 viewBox="0 0 512 512" style="enable-background:new 0 0 512 512;" xml:space="preserve">
<style type="text/css">
	.st0{fill:#4C6CA5;}
</style>
<g>
	<g>
		<path class="st0" d="M451.5,268.9c-13.1-20.4-31.5-36.6-53.2-47.1c-5-2.4-11-0.3-13.3,4.7c-2.4,5-0.3,11,4.7,13.3
			C427.5,258,452,297,452,339c0,18-4.4,35.8-12.8,51.6c-2.6,4.9-0.7,10.9,4.1,13.5c1.5,0.8,3.1,1.2,4.7,1.2c3.6,0,7-1.9,8.8-5.3
			c9.9-18.6,15.2-39.7,15.2-61C472,314,464.9,289.8,451.5,268.9z"/>
	</g>
</g>
<g>
	<g>
		<path class="st0" d="M357.7,209l-0.7,0c-5.5,0-10,4.5-10,10s4.5,10,10,10l0.6,0c0,0,0,0,0,0c5.5,0,10-4.4,10-10
			C367.7,213.5,363.2,209,357.7,209z"/>
	</g>
</g>
<g>
	<g>
		<path class="st0" d="M294.4,438.2C256.5,420,232,381,232,339c0-18,4.4-35.8,12.8-51.6c2.6-4.9,0.7-10.9-4.1-13.5
			c-4.9-2.6-10.9-0.7-13.5,4.1c-9.9,18.6-15.2,39.7-15.2,61c0,25,7.1,49.2,20.5,70.1c13.1,20.4,31.5,36.6,53.2,47.1
			c1.4,0.7,2.9,1,4.3,1c3.7,0,7.3-2.1,9-5.7C301.5,446.6,299.4,440.6,294.4,438.2z"/>
	</g>
</g>
<g>
	<g>
		<path class="st0" d="M327,449l-0.6,0c-5.5,0-10,4.4-10,10c0,5.5,4.4,10,10,10l0.7,0c5.5,0,10-4.5,10-10S332.5,449,327,449z"/>
	</g>
</g>
<g>
	<g>
		<path class="st0" d="M387.4,175.2c-1.2-2.9-2.7-5.6-4.4-8.2h26c25.4,0,46-20.6,46-46s-20.6-46-46-46h-80.1
			c5.1-7.4,8.1-16.4,8.1-26c0-25.4-20.6-46-46-46H46C20.6,3,0,23.6,0,49s20.6,46,46,46h80.1c-5.1,7.4-8.1,16.4-8.1,26s3,18.6,8.1,26
			H100c-25.4,0-46,20.6-46,46c0,14.6,6.8,27.6,17.4,36C60.8,237.4,54,250.4,54,265s6.8,27.6,17.4,36C60.8,309.4,54,322.4,54,337
			s6.8,27.6,17.4,36C60.8,381.4,54,394.4,54,409c0,25.4,20.6,46,46,46h117.9c31,33.2,75.2,54,124.2,54c93.7,0,170-76.3,170-170
			C512,261,459.2,195.1,387.4,175.2z M409,95c14.3,0,26,11.7,26,26s-11.7,26-26,26h-64H164c-14.3,0-26-11.7-26-26s11.7-26,26-26H409
			z M46,75c-14.3,0-26-11.7-26-26s11.7-26,26-26h245c14.3,0,26,11.7,26,26s-11.7,26-26,26H46z M100,167h245c4,0,7.9,0.9,11.3,2.6
			c-4.7-0.4-9.5-0.6-14.3-0.6c-46.9,0-89.5,19.1-120.3,50H100c-14.3,0-26-11.7-26-26S85.7,167,100,167z M100,239h104.6
			c-11.4,15.6-20.1,33.1-25.7,52H100c-14.3,0-26-11.7-26-26C74,250.7,85.7,239,100,239z M100,311h74.3c-1.5,9.1-2.3,18.5-2.3,28
			c0,8.1,0.6,16.2,1.7,24H100c-14.3,0-26-11.7-26-26S85.7,311,100,311z M100,435c-14.3,0-26-11.7-26-26s11.7-26,26-26h77.8
			c5,18.8,13.2,36.3,24,52H100z M342,489c-82.7,0-150-67.3-150-150s67.3-150,150-150s150,67.3,150,150S424.7,489,342,489z"/>
	</g>
	<path class="st0" d="M362.3,271.9h-41.6c-6.6,0-11.9,5.3-11.9,11.9v118.7c0,6.6,5.3,11.9,11.9,11.9s11.9-5.3,11.9-11.9v-11.9h23.7
		c6.6,0,11.9-5.3,11.9-11.9c0-6.6-5.3-11.9-11.9-11.9h-23.7V355h29.7c22.9,0,41.6-18.6,41.6-41.6S385.2,271.9,362.3,271.9z
		 M362.3,331.2h-29.7v-35.6h29.7c9.8,0,17.8,8,17.8,17.8C380.1,323.2,372.1,331.2,362.3,331.2z"/>
</g>
</svg>
