<?xml version="1.0" encoding="utf-8"?>
<!-- Generator: Adobe Illustrator 24.1.2, SVG Export Plug-In . SVG Version: 6.00 Build 0)  -->
<svg version="1.1" id="Слой_1" xmlns="http://www.w3.org/2000/svg" xmlns:xlink="http://www.w3.org/1999/xlink" x="0px" y="0px"
	 viewBox="0 0 512 512" style="enable-background:new 0 0 512 512;" xml:space="preserve">
<style type="text/css">
	.st0{display:none;fill:#4C6CA5;}
	.st1{fill:#4C6CA5;}
</style>
<g>
	<g>
		<circle class="st0" cx="288.9" cy="222.8" r="115.2"/>
		<path class="st1" d="M459.9,33.6c-57.8,0-114.2-10.9-167.9-32.3L288.9,0l-3.1,1.2C232.2,22.7,175.8,33.5,118,33.5H99.6v172.8H58.5
			c-13.6,0-24.7,11.1-24.7,24.7V371c0,13.6,11.1,24.7,24.7,24.7h74.1c0,0,0,0,0,0c19.4,30.9,46.4,56.4,78.5,73.9l77.8,42.5
			l77.8-42.5c68.7-37.5,111.4-109.4,111.4-187.7V33.6H459.9z M50.3,371V231.1c0-4.5,3.7-8.2,8.2-8.2h74.1c4.5,0,8.2,3.7,8.2,8.2V371
			c0,4.5-3.7,8.2-8.2,8.2H58.5C54,379.2,50.3,375.5,50.3,371z M157.2,247.4c27.5-1.5,49.4-24.3,49.4-52.2v-42.4
			c0-11.3,9.2-20.6,20.6-20.6c11.3,0,20.6,9.2,20.6,20.6v51.8c0,14.5,11.8,26.4,26.4,26.4h60.3c15.7,0,28.5,12.8,28.5,28.5v91.1
			c0,15.7-12.8,28.5-28.5,28.5H213.2c-6.5,0-12.6-3.3-16.2-8.7c-6.7-10-17.9-16-29.9-16h-9.9L157.2,247.4L157.2,247.4z M461.7,281.8
			c0,72.3-39.4,138.7-102.9,173.3l-70,38.2l-70-38.2c-28.6-15.6-52.8-38.1-70.6-65.3c5-4.2,8.3-10.3,8.7-17.2
			c16.6,28.6,40.5,52.1,69.8,68.1l62.1,33.9l62.1-33.9c58.2-31.7,94.3-92.6,94.3-158.8V157h-16.5v124.8
			c0,60.2-32.8,115.5-85.7,144.4l-54.2,29.6l-54.2-29.6c-23.2-12.6-42.7-30.5-57.3-52.2c2.3,1.4,4.4,3.3,5.9,5.6
			c6.7,10,17.9,16,29.9,16h121.3c24.8,0,45-20.2,45-45v-91.1c0-24.8-20.2-45-45-45h-60.3c-5.5,0-9.9-4.5-9.9-9.9v-51.8
			c0-20.4-16.6-37-37-37s-37,16.6-37,37v42.4c0,18.8-14.6,34-33,35.5c-0.1-7.2-3.3-13.5-8.2-18V82c47.8-2.9,94.8-12.7,139.9-29.1
			C334,69.3,381,79,428.8,82v9.2h16.5V66.3l-7.9-0.4c-49.8-2.3-98.8-12.2-145.7-29.5l-2.9-1.1l-2.9,1.1
			C239.2,53.7,190.2,63.7,140.4,66l-7.9,0.4v140h-16.5V50h1.9c58.8,0,116.3-10.9,170.9-32.3C343.6,39.1,401.1,50,459.8,50h1.9
			L461.7,281.8L461.7,281.8L461.7,281.8z"/>
		<rect x="428.8" y="124.1" class="st1" width="16.5" height="16.5"/>
		<rect x="66.7" y="346.3" class="st1" width="57.6" height="16.5"/>
	</g>
</g>
</svg>
