<?xml version="1.0" encoding="utf-8"?>
<!-- Generator: Adobe Illustrator 24.1.2, SVG Export Plug-In . SVG Version: 6.00 Build 0)  -->
<svg version="1.1" id="Режим_изоляции"
	 xmlns="http://www.w3.org/2000/svg" xmlns:xlink="http://www.w3.org/1999/xlink" x="0px" y="0px" viewBox="0 0 511.8 511.8"
	 style="enable-background:new 0 0 511.8 511.8;" xml:space="preserve">
<style type="text/css">
	.st0{fill:#4C6CA5;}
</style>
<g>
	<path class="st0" d="M451.3,98.5c-0.4-0.7-0.8-1.4-1.3-2c-0.1-0.1-0.2-0.3-0.4-0.4c-0.6-0.6-1.3-1.1-2.1-1.5L259.7,0.7
		c-0.2-0.1-0.4-0.1-0.6-0.2c-2.1-0.8-4.4-0.8-6.5,0c-0.2,0.1-0.4,0.1-0.6,0.2L64.4,94.6c-0.8,0.4-1.5,0.9-2.1,1.5
		c-0.1,0.1-0.2,0.3-0.4,0.4c-0.5,0.6-1,1.3-1.3,2c-0.1,0.2-0.2,0.5-0.3,0.7c-0.4,0.9-0.6,1.9-0.6,3V162c0,3.2,1.8,6.2,4.7,7.6
		l3.8,1.9v28.9c0,4.7,3.8,8.5,8.5,8.5s8.5-3.8,8.5-8.5v-20.3l162.1,81.1v228.4L85.3,408.4V268.6c0-4.7-3.8-8.5-8.5-8.5
		s-8.5,3.8-8.5,8.5v145.1h0.1c0,3.2,1.8,6.2,4.6,7.6l179.2,89.6c0.1,0,0.2,0,0.2,0.1c2.3,1.1,4.9,1.1,7.2,0c0.1,0,0.2,0,0.2-0.1
		l179.2-89.6c0.3-0.2,0.7-0.5,1-0.8c0.5-0.3,1-0.7,1.4-1.1c0.6-0.9,1.2-1.8,1.7-2.8c0.2-0.6,0.3-1.2,0.4-1.8
		c0.1-0.4,0.2-0.8,0.2-1.2V171.5l3.8-1.9c2.9-1.4,4.7-4.4,4.7-7.6v-59.7c0-1-0.2-2-0.6-3C451.5,99,451.4,98.8,451.3,98.5z
		 M435.1,156.7L264.5,242v-40.6l170.7-85.3V156.7z M76.7,116.1l170.7,85.3V242L76.7,156.7V116.1z M255.9,17.9l168.7,84.3
		l-168.7,84.3L87.3,102.2L255.9,17.9z M426.6,408.4l-162.1,81.1V261.1l162.1-81.1V408.4z"/>
	<path class="st0" d="M76.4,243c3.3,0,6.3-2.1,7.6-5.3s0.6-6.9-1.8-9.3l-1.2-1c-0.5-0.3-1-0.6-1.5-0.8c-0.5-0.2-1-0.4-1.5-0.5
		c-0.5-0.1-1.1-0.2-1.6-0.2c-2.2,0-4.3,0.9-5.8,2.5c-2,2-2.9,4.9-2.3,7.7c0.5,2.8,2.4,5.1,5,6.2C74.3,242.8,75.3,243,76.4,243z"/>
	<path class="st0" d="M286.2,152.5c2.4,1.2,5.2,1.2,7.6,0l85.3-42.7c2.9-1.4,4.7-4.4,4.7-7.6s-1.8-6.2-4.7-7.6l-68.3-34.1
		c-2.4-1.2-5.2-1.2-7.6,0L218,103.1c-2.9,1.4-4.7,4.4-4.7,7.6s1.8,6.2,4.7,7.6L286.2,152.5z M307.1,77.7l49.2,24.6l-66.3,33.1
		l-49.2-24.6L307.1,77.7z"/>
	<path class="st0" d="M285.6,339.9c2.5,1.6,5.7,1.7,8.3,0.4l85.3-42.7c2.9-1.4,4.7-4.4,4.7-7.6v-51.2c0-3-1.5-5.7-4-7.3
		c-2.5-1.6-5.7-1.7-8.3-0.4l-85.3,42.7c-2.9,1.4-4.7,4.4-4.7,7.6v51.2C281.5,335.6,283.1,338.3,285.6,339.9z M298.6,286.7l68.3-34.1
		v32.1l-68.3,34.1V286.7z"/>
	<path class="st0" d="M379.2,376.2l-17.1-8.5c-0.1-0.1-0.2-0.1-0.3-0.1c-0.1,0-0.1-0.1-0.2-0.1c-0.2-0.1-0.4-0.1-0.6-0.2
		c-0.5-0.2-0.9-0.3-1.4-0.4c-1.1-0.1-2.2-0.1-3.3,0.2c-0.4,0.1-0.9,0.3-1.3,0.5c-0.3,0.1-0.6,0.2-0.9,0.4c-0.1,0-0.2,0.1-0.3,0.1
		c-0.4,0.3-0.8,0.6-1.1,0.9c-0.1,0.1-0.3,0.2-0.4,0.3l-17.1,17.1c-3.3,3.3-3.3,8.7,0,12c3.3,3.3,8.7,3.3,12,0l2.5-2.5v16.8
		l-34.1,17.1v-15l4.7,2.4c4.2,2.1,9.3,0.4,11.4-3.8c2.1-4.2,0.4-9.3-3.8-11.4l-17.1-8.5c-0.1-0.1-0.2-0.1-0.3-0.1
		c-0.1,0-0.1-0.1-0.2-0.1c-0.2-0.1-0.4-0.1-0.6-0.2c-0.5-0.2-0.9-0.3-1.4-0.4c-1.1-0.1-2.2-0.1-3.3,0.2c-0.4,0.1-0.9,0.3-1.3,0.5
		c-0.3,0.1-0.6,0.3-0.9,0.4c-0.1,0-0.2,0.1-0.3,0.1c-0.4,0.3-0.8,0.6-1.1,0.9c-0.1,0.1-0.3,0.2-0.4,0.3L284,411.9
		c-3.3,3.3-3.3,8.7,0,12s8.7,3.3,12,0l2.5-2.5v22.1c0,1,0.2,2,0.6,3c0.1,0.2,0.2,0.4,0.3,0.6c0.4,0.9,0.9,1.7,1.6,2.4
		c0.1,0.1,0.2,0.1,0.3,0.2c0.4,0.4,0.8,0.8,1.3,1.1c0.2,0.2,0.5,0.2,0.8,0.3c0.3,0.1,0.5,0.2,0.8,0.3c0.9,0.4,1.9,0.6,2.9,0.6
		c1.2,0,2.5-0.3,3.6-0.8c0.1,0,0.2,0,0.2-0.1l51.2-25.6c0.8-0.4,1.5-0.9,2.1-1.5c0.1-0.1,0.2-0.3,0.4-0.4c0.5-0.6,1-1.3,1.3-2
		c0.1-0.2,0.2-0.5,0.3-0.7c0.4-0.9,0.6-1.9,0.6-3v-28.9l4.7,2.4c4.2,2.1,9.3,0.4,11.4-3.8C385.1,383.4,383.4,378.3,379.2,376.2z"/>
	<path class="st0" d="M164.6,398.4c2.1,2.2,5.3,3.1,8.3,2.3c3-0.8,5.3-3.1,6.1-6.1s-0.1-6.1-2.3-8.3l-17.1-17.1
		c-0.1-0.1-0.3-0.2-0.4-0.3c-0.3-0.3-0.7-0.6-1.1-0.9c-0.1-0.1-0.2-0.1-0.3-0.1c-0.3-0.1-0.6-0.3-0.8-0.4c-0.4-0.2-0.9-0.3-1.3-0.5
		c-0.3-0.1-0.6-0.1-1-0.2c-1.3-0.2-2.5-0.1-3.7,0.4c-0.2,0.1-0.4,0.1-0.6,0.2c-0.1,0-0.1,0.1-0.2,0.1c-0.1,0-0.2,0.1-0.3,0.1
		l-17.1,8.5c-2.7,1.4-4.5,4.1-4.7,7.1c-0.2,3,1.3,6,3.8,7.6s5.8,1.9,8.5,0.5l4.7-2.4V418c0,1,0.2,2,0.6,3c0.1,0.3,0.2,0.5,0.3,0.7
		c0.4,0.7,0.8,1.4,1.3,2c0.1,0.1,0.2,0.3,0.4,0.4c0.6,0.6,1.3,1.1,2.1,1.5l51.2,25.6c0.1,0,0.2,0,0.2,0.1c1.1,0.5,2.3,0.8,3.6,0.8
		c1,0,2-0.2,2.9-0.6c0.3-0.1,0.5-0.2,0.8-0.3c0.3-0.1,0.5-0.2,0.8-0.3c0.5-0.3,0.9-0.7,1.3-1.1c0.1-0.1,0.2-0.1,0.3-0.2
		c0.7-0.7,1.2-1.5,1.6-2.4c0.1-0.2,0.2-0.4,0.3-0.6c0.4-0.9,0.6-1.9,0.6-3v-22.1l2.5,2.5c2.2,2.2,5.3,3,8.3,2.3
		c3-0.8,5.3-3.1,6.1-6.1s-0.1-6.1-2.3-8.3l-17.1-17.1c-0.1-0.1-0.3-0.2-0.4-0.3c-0.3-0.3-0.7-0.6-1.1-0.9c-0.1-0.1-0.2-0.1-0.3-0.1
		c-0.3-0.1-0.6-0.3-0.8-0.4c-1.1-0.5-2.4-0.7-3.6-0.7c-0.3,0-0.7,0-1,0.1c-0.5,0.1-1,0.2-1.4,0.4c-0.2,0.1-0.4,0.1-0.6,0.2
		c-0.1,0-0.1,0.1-0.2,0.1c-0.1,0-0.2,0.1-0.3,0.1l-17.1,8.5c-2.7,1.4-4.5,4.1-4.7,7.1s1.3,6,3.8,7.6s5.8,1.9,8.5,0.5l4.7-2.4v15
		l-34.1-17.1v-16.8L164.6,398.4z"/>
</g>
</svg>
