<?xml version="1.0" encoding="utf-8"?>
<!-- Generator: Adobe Illustrator 24.1.2, SVG Export Plug-In . SVG Version: 6.00 Build 0)  -->
<svg version="1.1" id="Capa_1" xmlns="http://www.w3.org/2000/svg" xmlns:xlink="http://www.w3.org/1999/xlink" x="0px" y="0px"
	 viewBox="0 0 512 512" style="enable-background:new 0 0 512 512;" xml:space="preserve">
<style type="text/css">
	.st0{fill:#4C6CA5;}
</style>
<g>
	<path class="st0" d="M313,332H154c-4.1,0-7.5,3.4-7.5,7.5s3.4,7.5,7.5,7.5h159c4.1,0,7.5-3.4,7.5-7.5S317.1,332,313,332z"/>
	<path class="st0" d="M313,392h-64.5c-4.1,0-7.5,3.4-7.5,7.5s3.4,7.5,7.5,7.5H313c4.1,0,7.5-3.4,7.5-7.5S317.1,392,313,392z"/>
	<path class="st0" d="M154,392c-4.1,0-7.5,3.4-7.5,7.5s3.4,7.5,7.5,7.5h64.5c4.1,0,7.5-3.4,7.5-7.5s-3.4-7.5-7.5-7.5H154z"/>
	<path class="st0" d="M313,362H154c-4.1,0-7.5,3.4-7.5,7.5s3.4,7.5,7.5,7.5h159c4.1,0,7.5-3.4,7.5-7.5S317.1,362,313,362z"/>
	<path class="st0" d="M411.5,101h-10V82.5c0-20.7-16.8-37.5-37.5-37.5h-22.5v-7.5c0-12.4-10.1-22.5-22.5-22.5h-45.7
		c-1.2-8.5-8.5-15-17.3-15h-45c-8.8,0-16.1,6.5-17.3,15H153c-12.4,0-22.5,10.1-22.5,22.5V45H103c-20.7,0-37.5,16.8-37.5,37.5v392
		c0,20.7,16.8,37.5,37.5,37.5h200.2c4.1,0,7.5-3.4,7.5-7.5s-3.4-7.5-7.5-7.5H103c-12.4,0-22.5-10.1-22.5-22.5v-392
		C80.5,70.1,90.6,60,103,60h90.5v15H106c-5.8,0-10.5,4.7-10.5,10.5V112c0,4.1,3.4,7.5,7.5,7.5s7.5-3.4,7.5-7.5V90h83v12.5
		c0,9.6,7.9,17.5,17.5,17.5h45c9.6,0,17.5-7.9,17.5-17.5V90h83v66H226c-6.9,0-12.5,5.6-12.5,12.5v136c0,6.9,5.6,12.5,12.5,12.5
		h130.5v120h-246V147c0-4.1-3.4-7.5-7.5-7.5s-7.5,3.4-7.5,7.5v324.5c0,5.8,4.7,10.5,10.5,10.5h255c5.8,0,10.5-4.7,10.5-10.5V317h15
		v157.5c0,12.4-10.1,22.5-22.5,22.5h-25.8c-4.1,0-7.5,3.4-7.5,7.5s3.4,7.5,7.5,7.5H364c20.7,0,37.5-16.8,37.5-37.5V317h10
		c19.3,0,35-15.7,35-35V136C446.5,116.7,430.8,101,411.5,101z M110.5,467v-15h246v15H110.5z M431.5,254.5c0,9.6-7.9,17.5-17.5,17.5
		H258.5v-71H414c6.4,0,12.4-1.9,17.5-5.1V254.5z M431.5,136c0,11-9,20-20,20h-10v-40h10C422.5,116,431.5,125,431.5,136z M326.5,37.5
		V45h-53V30H319C323.1,30,326.5,33.4,326.5,37.5z M145.5,45v-7.5c0-4.1,3.4-7.5,7.5-7.5h40.5v15H145.5z M258.5,102.5
		c0,1.4-1.1,2.5-2.5,2.5h-45c-1.4,0-2.5-1.1-2.5-2.5v-85c0-1.4,1.1-2.5,2.5-2.5h45c1.4,0,2.5,1.1,2.5,2.5V102.5z M361,75h-87.5V60
		H364c12.4,0,22.5,10.1,22.5,22.5V156h-15V85.5C371.5,79.7,366.8,75,361,75z M411.5,302h-183V171h183c7.4,0,14.3-2.3,20-6.3v3.8
		c0,9.6-7.9,17.5-17.5,17.5H254c-5.8,0-10.5,4.7-10.5,10.5v80c0,5.8,4.7,10.5,10.5,10.5h160c6.4,0,12.4-1.9,17.5-5.1v0.1
		C431.5,293,422.5,302,411.5,302z"/>
	<path class="st0" d="M137.4,275.3c-3.5-2.3-8.1-1.3-10.4,2.2c-2.3,3.5-1.3,8.1,2.2,10.4c9.6,6.3,16.1,8.1,24.6,8.6v8.1
		c0,4.1,3.4,7.5,7.5,7.5s7.5-3.4,7.5-7.5v-8.7c16.8-3.3,26.7-17.2,28.8-30.1c2.8-16.7-5.9-31.2-22.2-36.9c-2.2-0.8-4.4-1.6-6.6-2.4
		v-35.5c5.6,1.3,8.9,4.2,9.2,4.4c3,2.8,7.8,2.6,10.5-0.5c2.8-3,2.6-7.8-0.4-10.6c-0.4-0.4-7.6-6.8-19.3-8.6v-7.2
		c0-4.1-3.4-7.5-7.5-7.5s-7.5,3.4-7.5,7.5v7.8c-1.1,0.2-2.2,0.5-3.4,0.9c-10.7,3.2-18.7,12.4-20.9,24c-2,10.5,1.4,20.7,8.8,26.5
		c3.9,3.1,8.8,5.9,15.5,8.9v45C148,281,143.9,279.6,137.4,275.3L137.4,275.3z M147.5,215.8c-3-2.3-4.3-6.9-3.3-11.9
		c0.8-4.5,3.8-9.9,9.6-12.1v28C151.4,218.5,149.3,217.2,147.5,215.8z M170.4,243c13.9,4.9,13,16.8,12.4,20.3
		c-1.2,6.9-5.9,14.1-14,17v-37.9C169.3,242.6,169.8,242.8,170.4,243L170.4,243z"/>
</g>
</svg>
