<?xml version="1.0" encoding="utf-8"?>
<!-- Generator: Adobe Illustrator 24.1.2, SVG Export Plug-In . SVG Version: 6.00 Build 0)  -->
<svg version="1.1" id="Слой_1" xmlns:svgjs="http://svgjs.com/svgjs"
	 xmlns="http://www.w3.org/2000/svg" xmlns:xlink="http://www.w3.org/1999/xlink" x="0px" y="0px" viewBox="0 0 512 512"
	 style="enable-background:new 0 0 512 512;" xml:space="preserve">
<style type="text/css">
	.st0{fill:#4C6CA5;}
</style>
<g>
	<g id="XMLID_1102_">
		<g id="XMLID_968_">
			<path id="XMLID_1089_" class="st0" d="M204.4,308v-56c0-5.5-4.5-10-10-10h-88c-5.5,0-10,4.5-10,10v56c0,5.5,4.5,10,10,10h88
				C200,318,204.4,313.5,204.4,308z M184.4,298h-68v-36h68V298z"/>
			<path id="XMLID_1797_" class="st0" d="M200,360c0-5.5-4.5-10-10-10h-80c-5.5,0-10,4.5-10,10v44c0,5.5,4.5,10,10,10h80
				c5.5,0,10-4.5,10-10V360z M180,394h-60v-24h60V394z"/>
			<path id="XMLID_1806_" class="st0" d="M234,414h88c5.5,0,10-4.5,10-10v-44c0-5.5-4.5-10-10-10h-88c-5.5,0-10,4.5-10,10v44
				C224,409.5,228.5,414,234,414L234,414z M244,370h68v24h-68L244,370z"/>
			<path id="XMLID_1809_" class="st0" d="M356,360v44c0,5.5,4.5,10,10,10h88c5.5,0,10-4.5,10-10v-44c0-5.5-4.5-10-10-10h-88
				C360.5,350,356,354.5,356,360z M376,370h68v24h-68V370z"/>
			<path id="XMLID_1811_" class="st0" d="M454.1,242h-80c-5.5,0-10,4.5-10,10c0,5.5,4.5,10,10,10h80c5.5,0,10-4.5,10-10
				C464.1,246.5,459.6,242,454.1,242L454.1,242z"/>
			<path id="XMLID_1813_" class="st0" d="M454.1,290h-38.9c-5.5,0-10,4.5-10,10s4.5,10,10,10h38.9c5.5,0,10-4.5,10-10
				S459.6,290,454.1,290L454.1,290z"/>
			<path id="XMLID_1814_" class="st0" d="M190,438h-80c-5.5,0-10,4.5-10,10s4.5,10,10,10h80c5.5,0,10-4.5,10-10S195.5,438,190,438z"
				/>
			<path id="XMLID_1815_" class="st0" d="M324,448c0-5.5-4.5-10-10-10h-80c-5.5,0-10,4.5-10,10s4.5,10,10,10h80
				C319.5,458,324,453.5,324,448z"/>
			<path id="XMLID_1823_" class="st0" d="M495.7,201.1l11.8-44c3.5-12.9,1.7-26.4-5-37.9c-6.7-11.6-17.5-19.8-30.4-23.3L120.9,1.7
				C108-1.7,94.6,0,83,6.7c-11.6,6.7-19.8,17.5-23.3,30.4l-58,216.4c-7.1,26.6,8.7,54.1,35.4,61.2l11.4,3V462c0,27.6,22.4,50,50,50
				h136.8c5.5,0,10-4.5,10-10s-4.5-10-10-10H98.4c-16.5,0-30-13.5-30-30V238c0-16.5,13.5-30,30-30H462c16.5,0,30,13.5,30,30v224
				c0,16.5-13.5,30-30,30H325.2c-5.5,0-10,4.5-10,10s4.5,10,10,10H462c27.6,0,50-22.4,50-50V238C512,223.4,505.7,210.2,495.7,201.1
				L495.7,201.1z M93,24c6.9-4,15-5.1,22.8-3l351.2,94.1c7.7,2.1,14.2,7,18.2,14c4,6.9,5.1,15,3,22.8l-1,3.9L78,46.1l1-3.9
				C81.1,34.5,86,28,93,24L93,24z M48.4,238v59l-6.2-1.7c-7.7-2.1-14.2-7-18.2-14c-4-6.9-5.1-15-3-22.8l37.2-138.7l254,68.1H98.4
				C70.9,188,48.4,210.4,48.4,238z M389.5,188L63.4,100.6l9.4-35.2l409.1,109.6l-4.2,15.5c-5-1.7-10.3-2.6-15.8-2.6H389.5z"/>
			<path id="XMLID_1827_" class="st0" d="M280.2,492c-2.6,0-5.2,1.1-7.1,2.9c-1.9,1.9-2.9,4.4-2.9,7.1s1.1,5.2,2.9,7.1
				s4.4,2.9,7.1,2.9s5.2-1.1,7.1-2.9c1.9-1.9,2.9-4.4,2.9-7.1s-1.1-5.2-2.9-7.1S282.8,492,280.2,492z"/>
		</g>
	</g>
</g>
</svg>
