<?xml version="1.0" encoding="utf-8"?>
<!-- Generator: Adobe Illustrator 24.1.2, SVG Export Plug-In . SVG Version: 6.00 Build 0)  -->
<svg version="1.1" id="Capa_1" xmlns="http://www.w3.org/2000/svg" xmlns:xlink="http://www.w3.org/1999/xlink" x="0px" y="0px"
	 viewBox="0 0 512 512" style="enable-background:new 0 0 512 512;" xml:space="preserve">
<style type="text/css">
	.st0{fill:#AFAFAF;}
</style>
<g>
	<g>
		<path class="st0" d="M440.2,71.8C393.8,25.5,332.2,0,266.7,0S139.6,25.5,93.3,71.8S21.5,179.8,21.5,245.3
			c0,41.5,10.5,82.3,30.4,118.4L0,512l148.3-51.9c36.1,19.9,76.9,30.4,118.4,30.4c65.5,0,127.1-25.5,173.4-71.8
			c46.3-46.3,71.8-107.9,71.8-173.4S486.5,118.2,440.2,71.8z M266.7,460.5c-38.5,0-76.3-10.3-109.3-29.8l-6-3.5L49,463l35.9-102.5
			l-3.5-6c-19.5-33-29.8-70.8-29.8-109.3C51.5,126.6,148.1,30,266.7,30S482,126.6,482,245.3C482,363.9,385.4,460.5,266.7,460.5z"/>
	</g>
</g>
<g>
	<g>
		<path class="st0" d="M398.6,304.5l-35.4-35.4c-11.7-11.7-30.8-11.7-42.5,0l-13.5,13.5c-32.9-17.8-60-45-77.9-77.9l13.5-13.5
			c5.7-5.7,8.8-13.2,8.8-21.2c0-8-3.1-15.6-8.8-21.2l-35.4-35.4c-5.7-5.7-13.2-8.8-21.2-8.8c-8,0-15.6,3.1-21.2,8.8l-28.3,28.3
			c-16,16-16.7,43.6-2.1,77.7c12.8,29.8,36.1,62.5,65.8,92.2s62.4,53.1,92.2,65.8c16.3,7,31,10.4,43.8,10.4c14,0,25.5-4.2,33.9-12.6
			l28.3-28.3c5.7-5.7,8.8-13.2,8.8-21.2S404.3,310.2,398.6,304.5z M349.1,354.1c-6.3,6.3-23.8,4.7-44.6-4.3
			c-26.4-11.3-55.8-32.4-82.8-59.5s-48.2-56.5-59.5-82.8c-8.9-20.8-10.6-38.3-4.3-44.6l28.3-28.3l35.4,35.4l-28.7,28.7l4.5,9.6
			c22,46.5,59.8,84.2,106.2,106.2l9.6,4.5l28.7-28.7l35.4,35.4L349.1,354.1z"/>
	</g>
</g>
</svg>
